<?xml version="1.0" standalone="no"?>
<!DOCTYPE svg PUBLIC "-//W3C//DTD SVG 1.1//EN" "http://www.w3.org/Graphics/SVG/1.1/DTD/svg11.dtd" >
<svg xmlns="http://www.w3.org/2000/svg" xmlns:xlink="http://www.w3.org/1999/xlink" version="1.1">
<metadata></metadata>
<defs>
<font id="rundabold" horiz-adv-x="1232" >
<font-face units-per-em="2048" ascent="1536" descent="-512" />
<missing-glyph horiz-adv-x="532" />
<glyph unicode="&#xfb01;" horiz-adv-x="1325" d="M27 854v231h184q-8 44 -8 97q0 123 95.5 189.5t264.5 66.5q131 0 287 -33v-215q-113 29 -203 29q-62 0 -93.5 -19t-31.5 -78q0 -9 4 -37h260v-231h-262v-854h-307v854h-190zM885 1192v221h327v-221h-327zM895 0v1085h307v-1085h-307z" />
<glyph unicode="&#xfb02;" horiz-adv-x="1325" d="M27 854v231h184q-8 44 -8 97q0 123 95.5 189.5t264.5 66.5q131 0 287 -33v-215q-113 29 -203 29q-62 0 -93.5 -19t-31.5 -78q0 -9 4 -37h260v-231h-262v-854h-307v854h-190zM893 0v1413h307v-1413h-307z" />
<glyph horiz-adv-x="0" />
<glyph horiz-adv-x="682" />
<glyph unicode=" "  horiz-adv-x="532" />
<glyph unicode="&#x09;" horiz-adv-x="532" />
<glyph unicode="&#xa0;" horiz-adv-x="532" />
<glyph unicode="!" horiz-adv-x="608" d="M135 0v287h340v-287h-340zM137 936v477h332q0 -80 -1 -238.5t-1 -238.5l-51 -516h-223z" />
<glyph unicode="&#x22;" horiz-adv-x="948" d="M109 827v586h307v-586h-307zM530 827v586h310v-586h-310z" />
<glyph unicode="#" horiz-adv-x="1613" d="M72 367v241h307l41 226h-270v239h315l61 340h295l-63 -340h229l62 340h294l-63 -340h266v-239h-309l-41 -226h262v-241h-305l-63 -367h-304l70 367h-225l-64 -367h-303l70 367h-262zM674 608h227l41 226h-227z" />
<glyph unicode="$" horiz-adv-x="1320" d="M66 451l284 36h17q15 -260 307 -260q107 0 178.5 47t71.5 144q0 44 -28 73t-75 44t-108 25t-129 20.5t-135.5 25.5t-128.5 45t-108 74t-75 117t-28 170q0 166 113 273.5t298 139.5v232h297v-230q196 -29 307 -140t111 -312l-277 -25h-18q-9 119 -85.5 176.5t-199.5 57.5 q-106 0 -165.5 -44t-59.5 -120q0 -44 28 -73.5t75.5 -45t109 -25.5t129.5 -20.5t135.5 -25t129 -43t109 -70t75.5 -111.5t28 -162q0 -83 -22.5 -153t-61.5 -120t-94 -88t-118 -61t-136 -34v-240h-297v238q-95 13 -173.5 44.5t-143.5 85.5t-101 139.5t-36 195.5z" />
<glyph unicode="%" horiz-adv-x="2109" d="M68 948q0 80 12 147t41 128.5t75 104.5t118 68t165 25q410 0 410 -473q0 -101 -20 -182.5t-65 -149.5t-127.5 -105.5t-197.5 -37.5q-93 0 -165 25.5t-118 68.5t-75 104.5t-41 129t-12 147.5zM311 948q0 -95 13.5 -157t51.5 -100t101 -38q49 0 82 20.5t51 61t25.5 91.5 t7.5 122t-7.5 122t-25.5 91.5t-51 61t-82 20.5q-63 0 -101 -38t-51.5 -100t-13.5 -157zM565 -10l764 1442h223l-759 -1442h-228zM1221 451q0 471 411 471q115 0 198 -37t128.5 -104.5t65.5 -148t20 -181.5q0 -80 -12 -147.5t-41.5 -129.5t-75.5 -105t-118 -68.5t-165 -25.5 t-165 25.5t-118 68.5t-75 105t-41 129.5t-12 147.5zM1464 451q0 -95 13.5 -157t51.5 -100t101 -38q94 0 131 75t37 220t-37 219.5t-131 74.5q-93 0 -129.5 -74.5t-36.5 -219.5z" />
<glyph unicode="&#x26;" horiz-adv-x="1554" d="M66 410q0 112 59.5 205.5t169.5 134.5q-141 125 -141 280q0 176 138 292t374 116q489 0 524 -391l-268 -64h-23q-2 82 -62.5 140.5t-158.5 58.5q-85 0 -143 -40.5t-58 -109.5q0 -88 119 -186l412 -342q32 63 32 166q0 44 -14 172h283q12 -70 12 -150q0 -205 -88 -377 l330 -276v-39h-385l-129 104q-168 -127 -431 -127q-139 0 -247 34t-173.5 94t-98.5 137t-33 168zM389 418q0 -69 70.5 -122.5t179.5 -53.5t192 47l-339 282q-103 -48 -103 -153z" />
<glyph unicode="'" horiz-adv-x="485" d="M106 889v522h273v-522h-273z" />
<glyph unicode="(" horiz-adv-x="796" d="M59 715q0 146 24 276.5t77.5 247.5t134 203.5t200 141.5t267.5 65v-275q-81 -15 -144.5 -48t-105 -82t-70 -105.5t-43 -129t-20.5 -141.5t-6 -153q0 -72 4 -132t15 -124t29 -115.5t48 -100.5t70 -85t96.5 -63t126.5 -40v-274q-148 10 -267.5 65t-200 141.5t-134 203.5 t-77.5 247.5t-24 276.5z" />
<glyph unicode=")" horiz-adv-x="796" d="M35 55q97 18 168 63.5t112.5 105t66.5 143.5t33.5 165t8.5 183t-8.5 183t-33.5 164.5t-66.5 143t-112.5 105t-168 63.5v275q148 -10 267.5 -65t199.5 -141.5t133.5 -203.5t77.5 -247.5t24 -276.5t-24 -276.5t-77.5 -247.5t-133.5 -203.5t-199.5 -141.5t-267.5 -65v274z " />
<glyph unicode="*" horiz-adv-x="888" d="M70 1204l71 166l201 -84v232h205v-232l201 84l71 -166l-215 -84l164 -188l-168 -119l-156 207l-155 -207l-168 119l164 188z" />
<glyph unicode="+" horiz-adv-x="1247" d="M70 416v274h411v416h287v-416h410v-274h-410v-416h-287v416h-411z" />
<glyph unicode="," horiz-adv-x="522" d="M35 -297l102 518h281l-172 -518h-211z" />
<glyph unicode="-" horiz-adv-x="1136" d="M100 461v241h936v-241h-936z" />
<glyph unicode="." horiz-adv-x="489" d="M119 0v322h252v-322h-252z" />
<glyph unicode="/" horiz-adv-x="1083" d="M35 -231l676 1800h325l-682 -1800h-319z" />
<glyph unicode="0" horiz-adv-x="1335" d="M80 707q0 124 17 227.5t59 199t108 161t168.5 104.5t235.5 39t235.5 -39t168 -104.5t107.5 -161t59 -199t17 -227.5t-17 -228t-59 -199t-107.5 -161t-168 -105t-235.5 -39t-235.5 39t-168.5 105t-108 161t-59 199t-17 228zM395 707q0 -247 64.5 -372.5t208.5 -125.5 t208 125.5t64 372.5t-64 372t-208 125t-208.5 -125t-64.5 -372z" />
<glyph unicode="1" horiz-adv-x="808" d="M37 969v272l381 174h246v-1415h-310v1108l-293 -139h-24z" />
<glyph unicode="2" horiz-adv-x="1214" d="M55 991q5 147 78.5 249.5t193 150t275.5 47.5q227 0 367.5 -129t140.5 -328q0 -113 -38.5 -216t-112.5 -192t-160.5 -162t-202.5 -149h534v-262h-1017v227q83 52 144.5 92.5t137 95t129 101t108 103.5t88 110t54.5 113.5t21 120.5q0 108 -57 170.5t-156 62.5 q-111 0 -178 -69t-82 -191h-29z" />
<glyph unicode="3" horiz-adv-x="1214" d="M63 1057q23 192 160 286.5t367 94.5q248 0 378 -105.5t130 -269.5q0 -108 -54.5 -195t-162.5 -135q121 -35 189.5 -122.5t68.5 -202.5q0 -65 -20 -126t-63.5 -117.5t-106.5 -98t-156 -66.5t-205 -25q-99 0 -177 16t-147 54t-117 106.5t-73 167.5l239 107h25 q16 -108 92.5 -162.5t169.5 -54.5q96 0 159.5 54t63.5 151q0 100 -61.5 149t-188.5 49h-213v228h199q111 0 168 59.5t57 153.5q0 65 -51 112t-141 47q-96 0 -167 -51t-93 -166h-19z" />
<glyph unicode="4" horiz-adv-x="1294" d="M27 305v176l682 940h327v-878h213v-238h-213v-305h-309v305h-700zM358 543h369v534z" />
<glyph unicode="5" horiz-adv-x="1220" d="M72 330l256 96h24q16 -109 88.5 -163t163.5 -54q103 0 169.5 73t66.5 207q0 126 -65 199.5t-161 73.5q-167 0 -241 -160l-281 60l68 751h938v-254h-701l-30 -280q119 110 323 110q68 0 134 -20t125.5 -61.5t104 -99t71 -139t26.5 -175.5q0 -106 -31 -193.5t-83 -147 t-123 -100.5t-148.5 -59.5t-161.5 -18.5q-135 0 -242.5 37t-184.5 118t-105 200z" />
<glyph unicode="6" horiz-adv-x="1286" d="M80 698q0 187 45 330t126.5 232t189 133.5t237.5 44.5q467 0 518 -381l-250 -62h-18q-22 115 -89.5 166t-162.5 51q-140 0 -217.5 -119t-77.5 -335q122 166 360 166q74 0 141.5 -16.5t127.5 -52.5t104 -88.5t70 -129t26 -168.5q0 -147 -75 -260.5t-200.5 -173.5 t-277.5 -60q-97 0 -179.5 22t-157.5 75t-127 134t-82.5 206.5t-30.5 285.5zM414 453q0 -111 69 -172.5t176 -61.5q99 0 168.5 62t69.5 172q0 118 -63.5 176.5t-171.5 58.5q-109 0 -178.5 -57.5t-69.5 -177.5z" />
<glyph unicode="7" horiz-adv-x="1073" d="M29 1188v225h1034v-176q-21 -32 -61 -100t-108.5 -201t-131.5 -274t-124.5 -321.5t-92.5 -340.5h-316q32 150 90 318t116 301t121.5 261t102.5 198t64 110h-694z" />
<glyph unicode="8" horiz-adv-x="1257" d="M72 416q0 119 75.5 208.5t210.5 129.5q-73 21 -126 70.5t-77 108.5t-24 120q0 83 30.5 150.5t79.5 110.5t115 71.5t134 40.5t139 12t139 -12t134 -40.5t115 -71.5t79 -110.5t30 -150.5q0 -96 -58.5 -182.5t-168.5 -116.5q135 -40 211 -129.5t76 -208.5q0 -112 -46.5 -199 t-126.5 -138.5t-177 -77.5t-207 -26t-207 26t-177 77.5t-126.5 138.5t-46.5 199zM385 416q0 -92 70 -147.5t174 -55.5t173.5 55.5t69.5 147.5q0 90 -69.5 146t-173.5 56t-174 -56t-70 -146zM442 1030q0 -88 53.5 -136t133.5 -48t133 48t53 136t-53 135t-133 47t-133.5 -47 t-53.5 -135z" />
<glyph unicode="9" horiz-adv-x="1284" d="M76 944q0 147 75 260.5t200.5 173.5t277.5 60q97 0 179.5 -22t157.5 -75t127 -134t82.5 -206.5t30.5 -285.5q0 -187 -45 -330t-126.5 -232t-189 -133.5t-237.5 -44.5q-467 0 -518 381l250 62h18q22 -115 89.5 -166t162.5 -51q140 0 217.5 119t77.5 335 q-122 -166 -360 -166q-74 0 -141.5 16.5t-127.5 52.5t-104 88.5t-70 129t-26 168.5zM389 961q0 -118 64 -177t172 -59q109 0 178 58t69 178q0 111 -69 172t-176 61q-99 0 -168.5 -61.5t-69.5 -171.5z" />
<glyph unicode=":" horiz-adv-x="522" d="M135 0v340h252v-340h-252zM135 580v340h252v-340h-252z" />
<glyph unicode=";" horiz-adv-x="559" d="M45 -297l102 518h281l-172 -518h-211zM164 580v340h252v-340h-252z" />
<glyph unicode="&#x3c;" horiz-adv-x="1208" d="M68 489v328l1034 453v-299l-758 -314l758 -321v-297z" />
<glyph unicode="=" horiz-adv-x="1331" d="M111 203v274h1110v-274h-1110zM111 717v272h1110v-272h-1110z" />
<glyph unicode="&#x3e;" horiz-adv-x="1210" d="M109 39v299l757 311l-757 324v297l1034 -455v-326z" />
<glyph unicode="?" horiz-adv-x="1062" d="M63 1040q0 193 130.5 294.5t349.5 101.5q110 0 199 -35.5t144 -94.5t84 -130.5t29 -147.5q0 -155 -96.5 -273t-271.5 -167v-178h-336v301q176 15 286.5 102.5t110.5 206.5q0 75 -38 125.5t-117 50.5q-33 0 -60 -8.5t-53.5 -29.5t-44 -64t-23.5 -105l-290 19 q0 5 -1.5 15.5t-1.5 16.5zM293 0v287h336v-287h-336z" />
<glyph unicode="@" horiz-adv-x="1759" d="M74 551q0 160 57.5 304t160.5 253t258.5 173.5t340.5 64.5q188 0 340.5 -54t252 -149t153 -223.5t53.5 -278.5q0 -99 -22.5 -183t-60.5 -142.5t-88.5 -100t-106 -61t-112.5 -19.5q-101 0 -166.5 49t-78.5 135h-19q-32 -70 -101 -108.5t-142 -38.5q-132 0 -216.5 92.5 t-84.5 280.5q0 190 84 282.5t217 92.5q76 0 141 -33t102 -103v121h189v-497q0 -76 34.5 -113t90.5 -37q83 0 147 98t64 287q0 123 -42.5 228.5t-124.5 186t-211 126t-292 45.5q-143 0 -268.5 -48t-218 -134.5t-146 -215.5t-53.5 -282q0 -314 179.5 -503t487.5 -189 q146 0 257 36.5t210 100.5l56 -94q-93 -61 -228 -109.5t-295 -48.5q-172 0 -317.5 55t-252.5 156.5t-167.5 255t-60.5 342.5zM717 545q0 -203 141 -203q146 0 146 203q0 205 -146 205q-141 0 -141 -205z" />
<glyph unicode="A" horiz-adv-x="1394" d="M-12 0l516 1421h387l516 -1421h-338l-113 330h-520l-114 -330h-334zM518 582h365l-176 514h-13z" />
<glyph unicode="B" horiz-adv-x="1374" d="M147 0v1413h641q96 0 174.5 -16.5t129.5 -46t88 -65t56 -77.5t27.5 -79t8.5 -74q0 -43 -8 -83t-28.5 -85t-63.5 -84t-105 -64q231 -80 231 -331q0 -57 -16 -112.5t-53 -109.5t-92 -95t-140.5 -66t-189.5 -25h-660zM465 258h328q92 0 137 52t45 132q0 73 -52 120.5 t-145 47.5h-313v-352zM465 854h317q65 0 114.5 46t49.5 114q0 61 -42.5 101t-127.5 40h-311v-301z" />
<glyph unicode="C" horiz-adv-x="1443" d="M74 709q0 350 172.5 539.5t498.5 189.5q590 0 633 -488l-303 -47q-11 117 -94.5 197t-230.5 80q-173 0 -263 -123.5t-90 -347.5t93 -350t266 -126q150 0 233.5 79.5t97.5 209.5l302 -41q-11 -130 -64 -228.5t-139.5 -158.5t-195 -89.5t-238.5 -29.5h2q-327 0 -503.5 190 t-176.5 544z" />
<glyph unicode="D" horiz-adv-x="1456" d="M147 0v1413h586q134 0 243.5 -38.5t184.5 -104.5t126 -156.5t74 -192t23 -214.5t-23 -215t-74 -192.5t-126 -156.5t-184.5 -104.5t-243.5 -38.5h-586zM465 258h268q161 0 244.5 121.5t83.5 327.5q0 207 -83 327.5t-245 120.5h-268v-897z" />
<glyph unicode="E" horiz-adv-x="1249" d="M147 0v1413h1024v-258h-706v-297h596v-258h-596v-342h706v-258h-1024z" />
<glyph unicode="F" horiz-adv-x="1224" d="M147 0v1413h1024v-258h-706v-348h594v-258h-594v-549h-318z" />
<glyph unicode="G" horiz-adv-x="1529" d="M70 707q0 160 46 294t133 231.5t221 151.5t302 54q101 0 188.5 -16t165 -52.5t135 -91t96 -135t50.5 -182.5l-303 -56q-11 116 -95.5 195.5t-232.5 79.5q-179 0 -281 -115t-102 -358q0 -119 30.5 -208.5t84.5 -141.5t122 -77.5t150 -25.5q147 0 244.5 74t97.5 182v37 h-301v246h615v-793h-262v166q-76 -92 -193.5 -141.5t-253.5 -49.5q-138 0 -256.5 47t-208.5 137t-141 230.5t-51 317.5z" />
<glyph unicode="H" horiz-adv-x="1562" d="M147 0v1413h318v-545h633v545h317v-1413h-317v610h-633v-610h-318z" />
<glyph unicode="I" horiz-adv-x="612" d="M147 0v1413h318v-1413h-318z" />
<glyph unicode="J" horiz-adv-x="1181" d="M23 477l299 25q0 -66 14.5 -116t36 -78t51.5 -46t56.5 -23.5t54.5 -5.5q194 0 194 238v942h318v-960q0 -102 -29.5 -184.5t-78.5 -136t-116 -90t-137.5 -52t-146.5 -15.5q-110 0 -199.5 26.5t-162 83t-113 156.5t-41.5 236z" />
<glyph unicode="K" horiz-adv-x="1366" d="M147 0v1413h318v-616l168 231l301 385h401l-473 -561l524 -852h-380l-369 600l-172 -188v-412h-318z" />
<glyph unicode="L" horiz-adv-x="1101" d="M147 0v1413h318v-1155h598v-258h-916z" />
<glyph unicode="M" horiz-adv-x="1902" d="M147 0v1413h478l333 -1051l326 1051h471v-1413h-315v999h-8l-314 -1001h-334l-315 1001h-8v-999h-314z" />
<glyph unicode="N" horiz-adv-x="1593" d="M147 0v1413h336l650 -926v926h313v-1413h-338l-647 928v-928h-314z" />
<glyph unicode="O" horiz-adv-x="1566" d="M70 707q0 155 45 286.5t131.5 231.5t224.5 156.5t313 56.5q174 0 311.5 -56.5t224.5 -156.5t132 -231.5t45 -286.5t-45 -287t-132 -232t-224.5 -156.5t-311.5 -56.5q-141 0 -258 37t-200.5 103t-141.5 158t-86 201.5t-28 232.5zM393 707q0 -216 98.5 -345t292.5 -129 q129 0 218.5 62t130.5 166.5t41 245.5t-41 245.5t-130.5 166t-218.5 61.5q-194 0 -292.5 -128.5t-98.5 -344.5z" />
<glyph unicode="P" horiz-adv-x="1263" d="M147 0v1413h560q236 0 379 -141.5t143 -368.5q0 -122 -44 -222.5t-117.5 -165t-166.5 -99.5t-194 -35h-242v-381h-318zM465 639h227q90 0 151.5 74t61.5 190t-58.5 184t-154.5 68h-227v-516z" />
<glyph unicode="Q" horiz-adv-x="1566" d="M70 707q0 155 45 286.5t131.5 231.5t224.5 156.5t313 56.5q174 0 311.5 -56.5t224.5 -156.5t132 -231.5t45 -286.5q0 -341 -180 -527l164 -162l-183 -178l-200 199q-140 -64 -314 -64q-141 0 -258 37t-200.5 103t-141.5 158t-86 201.5t-28 232.5zM393 707 q0 -216 98.5 -345t292.5 -129q23 0 52.5 7.5t42.5 17.5l-113 113l182 172l150 -150q76 107 76 314q0 141 -41 245.5t-130.5 166t-218.5 61.5q-194 0 -292.5 -128.5t-98.5 -344.5z" />
<glyph unicode="R" horiz-adv-x="1374" d="M147 0v1413h635q88 0 161.5 -13.5t138.5 -45.5t109.5 -81t70.5 -124t26 -172q0 -162 -71 -263t-195 -145l293 -549v-20h-350l-267 532h-233v-532h-318zM465 791h315q88 0 136.5 49t48.5 133t-48.5 133t-136.5 49h-315v-364z" />
<glyph unicode="S" horiz-adv-x="1318" d="M59 451l285 36h16q4 -73 30.5 -125.5t70.5 -81t94.5 -41t112.5 -12.5q107 0 179.5 47t72.5 144q0 44 -28 73t-75.5 44t-108.5 25t-129 20.5t-136 25.5t-129 45t-108.5 74t-75.5 117t-28 170q0 133 76 231t201.5 146.5t282.5 48.5q126 0 227.5 -26t178.5 -80.5t119 -145 t42 -211.5l-277 -25h-18q-9 119 -85.5 176.5t-199.5 57.5q-106 0 -165.5 -44t-59.5 -120q0 -44 28 -73.5t75.5 -45t109 -25.5t129.5 -20.5t135.5 -25t129 -43t109 -70t75.5 -111.5t28 -162q0 -100 -32 -180t-86.5 -133t-130 -89t-158 -51.5t-174.5 -15.5q-93 0 -176.5 14 t-163 49t-136.5 87.5t-92 136t-35 189.5z" />
<glyph unicode="T" horiz-adv-x="1249" d="M37 1155v258h1175v-258h-430v-1155h-317v1155h-428z" />
<glyph unicode="U" horiz-adv-x="1488" d="M133 522v891h318v-887q0 -141 81.5 -217t212.5 -76q129 0 211 76t82 217v887h318v-891q0 -253 -167.5 -400t-443.5 -147q-279 0 -445.5 147t-166.5 400z" />
<glyph unicode="V" horiz-adv-x="1359" d="M-12 1413h342l346 -1096h8l346 1096h342l-498 -1421h-389z" />
<glyph unicode="W" horiz-adv-x="2017" d="M33 1413h334l145 -627l74 -385h20l72 332l160 678h342l159 -678l72 -332h21l73 385l146 627h334l-367 -1413h-391l-189 788l-24 130h-10l-25 -130l-188 -788h-392z" />
<glyph unicode="X" horiz-adv-x="1380" d="M-4 0l483 729l-463 684h390l294 -461l271 461h393l-465 -694l487 -719h-391l-313 483l-293 -483h-393z" />
<glyph unicode="Y" horiz-adv-x="1284" d="M-18 1407v6h362l293 -610h10l293 610h363v-6l-502 -911v-496h-318v496z" />
<glyph unicode="Z" horiz-adv-x="1312" d="M80 0v246l715 909h-711v258h1122v-248l-712 -909h757v-256h-1171z" />
<glyph unicode="[" horiz-adv-x="751" d="M133 -195v1733h567v-250h-260v-1233h260v-250h-567z" />
<glyph unicode="\" horiz-adv-x="1114" d="M76 1411h325l676 -1800h-317z" />
<glyph unicode="]" horiz-adv-x="751" d="M51 55h258v1233h-258v250h567v-1733h-567v250z" />
<glyph unicode="^" horiz-adv-x="991" d="M55 791l348 620h185l348 -620h-277l-161 307l-154 -307h-289z" />
<glyph unicode="_" horiz-adv-x="1169" d="M117 -10v239h936v-239h-936z" />
<glyph unicode="`" horiz-adv-x="1064" d="M233 1444v37h281l227 -283v-18h-262z" />
<glyph unicode="a" horiz-adv-x="1138" d="M59 324q0 78 27.5 139.5t72.5 100.5t108 65t129 36.5t139 10.5h184v47q0 72 -47.5 115t-122.5 43q-43 0 -83.5 -13.5t-73 -49t-32.5 -87.5h-12l-254 64q0 72 30.5 128.5t77.5 90.5t111 56.5t125 31t125 8.5q101 0 182.5 -24t145.5 -74t99.5 -134.5t35.5 -197.5v-680h-266 v160h-8q-44 -78 -126 -126t-204 -48q-159 0 -261 86.5t-102 251.5zM373 340q0 -57 36.5 -87t92.5 -30q80 0 148.5 54t68.5 139v51h-162q-184 0 -184 -127z" />
<glyph unicode="b" horiz-adv-x="1275" d="M123 0v1413h307v-448q48 70 136 107.5t188 37.5q97 0 177 -32t143 -98t98.5 -177.5t35.5 -259.5t-35.5 -260t-98.5 -178t-143 -98t-177 -32q-242 0 -348 181v-156h-283zM424 543q0 -338 238 -338q117 0 175 79t58 259t-58 259t-175 79q-238 0 -238 -338z" />
<glyph unicode="c" horiz-adv-x="1161" d="M63 545q0 126 33 228t99 178t171 117.5t242 41.5q108 0 196 -25t153.5 -73.5t100.5 -126.5q32 -72 32 -162v-16l-297 -21q0 88 -47 141.5t-140 53.5q-229 0 -229 -336q0 -168 61.5 -254t167.5 -86q109 0 159 61t52 154l295 -19q-4 -113 -41.5 -196t-105 -132.5 t-157 -73.5t-202.5 -24q-176 0 -300 74t-183.5 201t-59.5 295z" />
<glyph unicode="d" horiz-adv-x="1275" d="M68 543q0 148 35.5 259.5t98.5 177.5t143 98t177 32q100 0 188 -37.5t136 -107.5v448h307v-1413h-283v156q-106 -181 -348 -181q-97 0 -177 32t-143 98t-98.5 178t-35.5 260zM381 543q0 -180 58 -259t175 -79q238 0 238 338t-238 338q-117 0 -175 -79t-58 -259z" />
<glyph unicode="e" horiz-adv-x="1181" d="M63 543q0 256 143.5 411.5t389.5 155.5q257 0 385.5 -136.5t128.5 -363.5v-143h-729q4 -132 65 -197t166 -65q206 0 224 172l284 -33q-20 -183 -156 -276t-366 -93q-247 0 -391 145t-144 423zM387 684h412v8q0 84 -50.5 138.5t-150.5 54.5q-97 0 -150 -54.5t-61 -146.5z " />
<glyph unicode="f" horiz-adv-x="815" d="M27 854v231h184q-8 44 -8 97q0 123 95.5 189.5t264.5 66.5q131 0 287 -33v-215q-113 29 -203 29q-62 0 -93.5 -19t-31.5 -78q0 -9 4 -37h260v-231h-262v-854h-307v854h-190z" />
<glyph unicode="g" d="M59 -160q0 170 170 197v8q-64 19 -99.5 71t-35.5 113q0 38 11 74.5t44 74.5t84 58q-133 101 -133 287q0 181 126.5 284t353.5 103q57 0 121 -8.5t90 -20.5h417v-225h-192q43 -64 43 -154q0 -97 -37.5 -169.5t-105 -115.5t-151.5 -64t-185 -21q-81 0 -174 26 q-46 -22 -46 -71q0 -30 26.5 -48t76.5 -18h299q191 0 291 -78.5t100 -226.5q0 -165 -141 -250.5t-414 -85.5q-151 0 -257.5 17.5t-167 52.5t-87.5 81.5t-27 108.5zM371 -127q0 -54 51.5 -78t173.5 -24q131 0 187.5 26t56.5 86q0 88 -133 88h-211q-125 0 -125 -98zM414 723 q0 -89 40 -140t126 -51q165 0 165 191q0 186 -165 186q-166 0 -166 -186z" />
<glyph unicode="h" horiz-adv-x="1245" d="M123 0v1413h307v-450q54 73 137.5 110t177.5 37q173 0 280.5 -100.5t107.5 -290.5v-719h-308v696q0 181 -163 181q-106 0 -169 -77t-63 -196v-604h-307z" />
<glyph unicode="i" horiz-adv-x="552" d="M113 1192v221h327v-221h-327zM123 0v1085h307v-1085h-307z" />
<glyph unicode="j" horiz-adv-x="552" d="M-121 -387l23 221q56 -16 92 -16q129 0 129 129v1138h307v-1175q0 -146 -90 -237t-264 -91q-97 0 -197 31zM113 1190v223h327v-223h-327z" />
<glyph unicode="k" horiz-adv-x="1179" d="M123 0v1413h307v-754q92 118 135 168l219 258h371q-61 -66 -184.5 -204t-196.5 -215l412 -666h-367l-264 461l-125 -131v-330h-307z" />
<glyph unicode="l" horiz-adv-x="557" d="M125 0v1413h307v-1413h-307z" />
<glyph unicode="m" horiz-adv-x="1861" d="M123 0v1085h278v-155h9q102 180 323 180q109 0 194 -53.5t124 -149.5q115 203 333 203q163 0 263 -100.5t100 -290.5v-719h-307v696q0 181 -152 181q-92 0 -142.5 -70t-53.5 -182v-625h-308v698q0 179 -149 179q-94 0 -149.5 -77.5t-55.5 -195.5v-604h-307z" />
<glyph unicode="n" horiz-adv-x="1247" d="M123 0v1085h278v-155h9q51 90 145 135t197 45q169 0 276 -100.5t107 -288.5v-721h-308v696q0 181 -163 181q-107 0 -170.5 -78t-63.5 -197v-602h-307z" />
<glyph unicode="o" d="M63 543q0 273 144.5 420t408.5 147t408.5 -147t144.5 -420q0 -271 -145 -419.5t-408 -148.5t-408 148.5t-145 419.5zM377 543q0 -338 239 -338q240 0 240 338t-240 338q-239 0 -239 -338z" />
<glyph unicode="p" horiz-adv-x="1275" d="M123 -395v1480h283v-155q105 180 348 180q97 0 177 -32t143 -98t98.5 -177.5t35.5 -259.5t-35.5 -260t-98.5 -178t-143 -98t-177 -32q-100 0 -188 38t-136 108v-516h-307zM424 543q0 -338 238 -338q117 0 175 79t58 259t-58 259t-175 79q-238 0 -238 -338z" />
<glyph unicode="q" horiz-adv-x="1275" d="M68 543q0 148 35.5 259.5t98.5 177.5t143 98t177 32q243 0 348 -180v155h283v-1480h-307v516q-48 -70 -136 -108t-188 -38q-97 0 -177 32t-143 98t-98.5 178t-35.5 260zM381 543q0 -180 58 -259t175 -79q238 0 238 338t-238 338q-117 0 -175 -79t-58 -259z" />
<glyph unicode="r" horiz-adv-x="821" d="M123 0v1085h301v-204h6q20 65 54.5 109.5t81.5 67t95.5 31.5t108.5 9h23v-262h-29q-154 0 -244 -82t-90 -262v-492h-307z" />
<glyph unicode="s" horiz-adv-x="1077" d="M66 289l253 51h17q0 -44 18 -75t49 -46.5t62.5 -22t66.5 -6.5q80 0 126.5 30.5t46.5 82.5q0 33 -21.5 54t-58 31.5t-83.5 17t-99 13.5t-104.5 18t-99.5 34.5t-83.5 58t-58 93t-21.5 135.5q0 71 25 130t67.5 99.5t100 68.5t122.5 41t135 13q216 0 335.5 -87t119.5 -255 l-246 -41h-14q-3 164 -193 164q-60 0 -100.5 -29t-40.5 -80q0 -35 27.5 -57t72 -31t101.5 -18.5t116.5 -17.5t116.5 -30.5t101.5 -55t72 -93t27.5 -143.5q0 -92 -42.5 -163.5t-113 -113.5t-153.5 -63t-172 -21q-77 0 -142 8.5t-128 30.5t-107 56.5t-71 90t-27 128.5z" />
<glyph unicode="t" horiz-adv-x="892" d="M25 856v229h206v238h308v-238h313v-229h-313v-520q0 -74 28.5 -103.5t100.5 -29.5t149 24l23 -225q-176 -27 -258 -27q-74 0 -132.5 13.5t-110 46.5t-80 97t-28.5 155v569h-206z" />
<glyph unicode="u" horiz-adv-x="1214" d="M113 403v682h307v-692q0 -88 50 -138t136 -50t137.5 50t51.5 138v692h307v-682q0 -208 -129 -318t-367 -110q-236 0 -364.5 110t-128.5 318z" />
<glyph unicode="v" horiz-adv-x="1136" d="M-4 1085h323l250 -806h9l241 806h322l-396 -1105h-352z" />
<glyph unicode="w" horiz-adv-x="1687" d="M14 1085h322l178 -778h8l162 778h317l164 -778h9l176 778h323l-315 -1085h-348l-172 692l-160 -692h-350z" />
<glyph unicode="x" horiz-adv-x="1200" d="M2 0l393 567l-377 518h369l217 -333l207 333h369l-375 -544l391 -541h-375l-229 340l-215 -340h-375z" />
<glyph unicode="y" horiz-adv-x="1093" d="M-2 1085h319l232 -745l235 745h316l-434 -1142q-66 -172 -178 -259t-308 -87h-141v260h147q68 0 104.5 30.5t61.5 87.5l25 56z" />
<glyph unicode="z" horiz-adv-x="1103" d="M76 856v229h919v-237l-512 -619h564v-229h-967v217l530 639h-534z" />
<glyph unicode="{" horiz-adv-x="856" d="M37 547v248q62 0 98.5 9.5t55 35.5t23.5 58t5 91v82q0 253 128.5 360t393.5 107h66v-252h-72q-114 0 -161.5 -45.5t-47.5 -146.5v-150q0 -227 -159 -270v-6q159 -43 159 -271v-149q0 -102 47.5 -147.5t161.5 -45.5h72v-252h-66q-265 0 -393.5 107t-128.5 360v82 q0 59 -5 91t-23.5 58.5t-55 36t-98.5 9.5z" />
<glyph unicode="|" horiz-adv-x="569" d="M131 -451v2022h307v-2022h-307z" />
<glyph unicode="}" horiz-adv-x="856" d="M49 55h72q114 0 161.5 45.5t47.5 147.5v149q0 228 159 271v6q-159 43 -159 270v150q0 101 -47.5 146.5t-161.5 45.5h-72v252h66q265 0 393.5 -107t128.5 -360v-82q0 -59 5 -91t23.5 -58t55 -35.5t98.5 -9.5v-248q-62 0 -98.5 -9.5t-55 -36t-23.5 -58.5t-5 -91v-82 q0 -253 -128.5 -360t-393.5 -107h-66v252z" />
<glyph unicode="~" horiz-adv-x="1271" d="M51 526q211 279 391 279q67 0 130 -22t102 -48.5t83 -48.5t77 -22q45 0 93.5 39.5t108.5 134.5l185 -189q-210 -278 -392 -278q-67 0 -130 22t-102 48.5t-83 48.5t-78 22q-88 0 -200 -174z" />
<glyph unicode="&#xa1;" horiz-adv-x="620" d="M137 866v287h340v-287h-340zM143 -260q0 80 1 238.5t1 238.5l52 516h223l55 -516v-477h-332z" />
<glyph unicode="&#xa2;" horiz-adv-x="1171" d="M66 545q0 217 97.5 363t287.5 186v235h307v-235q156 -32 241.5 -132t81.5 -262l-286 -16q0 88 -47 141.5t-140 53.5q-229 0 -229 -334q0 -169 61.5 -256.5t167.5 -87.5q199 0 203 213h289q-11 -362 -342 -424v-228h-307v232q-188 43 -286.5 189t-98.5 362z" />
<glyph unicode="&#xa3;" horiz-adv-x="1413" d="M72 0v256h268v315h-213v254h213v125q0 230 137 358t361 128q491 0 510 -416l-297 -23q-6 93 -62 137t-129 44q-38 0 -73 -13t-65.5 -40.5t-48.5 -77.5t-18 -117v-105h400v-254h-400v-315h590v-256h-1173z" />
<glyph unicode="&#xa5;" horiz-adv-x="1466" d="M72 1413h364l293 -620l307 620h367l-334 -600h238v-244h-373l-41 -73v-39h414v-242h-414v-215h-318v215h-432v242h430v43l-38 69h-392v244h258z" />
<glyph unicode="&#xa6;" horiz-adv-x="573" d="M133 -453v940h307v-940h-307zM133 664v909h307v-909h-307z" />
<glyph unicode="&#xa7;" horiz-adv-x="1120" d="M76 0l282 27q0 -84 58.5 -126t132.5 -42q79 0 125.5 32.5t46.5 96.5q0 36 -21.5 60.5t-58 37.5t-83.5 22t-99 17.5t-104.5 20.5t-99.5 35t-83.5 57t-58 91t-21.5 132q0 159 123 248q-121 79 -121 254q0 71 25 129.5t68.5 98t102.5 66.5t125.5 39.5t139.5 12.5 q444 0 455 -336l-275 -12q0 77 -51.5 118t-124.5 41q-74 0 -111.5 -30.5t-37.5 -85.5q0 -43 27 -71t71.5 -39.5t101 -22.5t115.5 -19t115.5 -29.5t101 -53t71.5 -91t27 -141.5q0 -162 -120 -258q118 -76 118 -242q0 -92 -40 -164.5t-107.5 -115.5t-149.5 -65t-172 -22 q-58 0 -107.5 4.5t-106.5 16t-102 35.5t-84.5 59t-63 90t-29.5 125zM406 502q0 -46 34.5 -74t68 -37t110.5 -22q7 -1 10 -2q47 16 70.5 44t23.5 76q0 23 -7 40.5t-24 30.5t-32 21t-45.5 15t-48.5 10.5t-56 9.5q-104 -18 -104 -112z" />
<glyph unicode="&#xa8;" horiz-adv-x="1167" d="M164 1180v270h297v-270h-297zM694 1180v270h297v-270h-297z" />
<glyph unicode="&#xa9;" horiz-adv-x="1652" d="M70 702q0 152 52.5 285.5t148.5 232.5t239 156.5t315 57.5q173 0 316.5 -57.5t239.5 -156.5t149 -232.5t53 -285.5t-53 -285t-149 -231t-239.5 -154.5t-316.5 -56.5q-172 0 -315 56.5t-239 154.5t-148.5 231t-52.5 285zM240 702q0 -181 78 -315t209.5 -202t297.5 -68 q167 0 299.5 68t210.5 202t78 315q0 136 -45 248t-124.5 186t-186.5 114t-232 40q-166 0 -297.5 -68.5t-209.5 -203.5t-78 -316zM506 707q0 162 85 256t243 94q129 0 210 -66t82 -188l-147 -10q-7 30 -15.5 50.5t-24.5 43.5t-43 35t-65 12q-86 0 -129 -61t-43 -166 q0 -106 45 -168t130 -62q33 0 57.5 8t38.5 19t25 32t15.5 37.5t10.5 44.5l149 -10q-3 -115 -83 -184.5t-213 -69.5q-159 0 -243.5 94.5t-84.5 258.5z" />
<glyph unicode="&#xaa;" horiz-adv-x="823" d="M72 907q0 67 23 113.5t67 72t97.5 36t125.5 10.5h131v43q0 54 -31.5 84t-87.5 30q-47 0 -82.5 -23t-35.5 -77v-12l-175 20v23q0 59 28.5 102.5t75.5 66t96.5 32.5t103.5 10q136 0 223.5 -67.5t87.5 -207.5v-471h-174v111h-6q-27 -52 -84.5 -86.5t-139.5 -34.5 q-99 0 -171 58t-72 167zM281 926q0 -49 29 -75t73 -26q51 0 92 38.5t41 105.5v59h-106q-24 0 -39.5 -2t-39.5 -10.5t-37 -31t-13 -58.5z" />
<glyph unicode="&#xab;" horiz-adv-x="1589" d="M18 571l435 428h419l-436 -428l438 -424h-421zM649 571l434 428h420l-436 -428l438 -424h-422z" />
<glyph unicode="&#xac;" horiz-adv-x="1191" d="M86 721v246h995v-568h-307v322h-688z" />
<glyph unicode="&#xad;" horiz-adv-x="1136" d="M100 461v241h936v-241h-936z" />
<glyph unicode="&#xae;" horiz-adv-x="1652" d="M70 702q0 152 52.5 285.5t148.5 232.5t239 156.5t315 57.5q173 0 316.5 -57.5t239.5 -156.5t149 -232.5t53 -285.5t-53 -285t-149 -231t-239.5 -154.5t-316.5 -56.5q-172 0 -315 56.5t-239 154.5t-148.5 231t-52.5 285zM240 702q0 -181 78 -315t209.5 -202t297.5 -68 q167 0 299.5 68t210.5 202t78 315q0 136 -45 248t-124.5 186t-186.5 114t-232 40q-166 0 -297.5 -68.5t-209.5 -203.5t-78 -316zM565 371v680h305q242 0 242 -213q0 -148 -127 -193l141 -264v-10h-170l-127 256h-110v-256h-154zM719 752h149q43 0 65.5 22.5t22.5 63.5 q0 39 -23 60.5t-65 21.5h-149v-168z" />
<glyph unicode="&#xaf;" horiz-adv-x="1077" d="M96 1186v213h862v-213h-862z" />
<glyph unicode="&#xb0;" horiz-adv-x="577" d="M70 1227q0 89 59.5 150t159.5 61q102 0 160.5 -60.5t58.5 -150.5t-58.5 -150.5t-160.5 -60.5q-100 0 -159.5 61t-59.5 150zM188 1227q0 -41 27 -72t74 -31t72.5 30.5t25.5 72.5t-25.5 72t-72.5 30t-74 -30.5t-27 -71.5z" />
<glyph unicode="&#xb1;" horiz-adv-x="1288" d="M90 0v274h1110v-274h-1110zM90 713v274h412v342h286v-342h410v-274h-410v-334h-286v334h-412z" />
<glyph unicode="&#xb2;" horiz-adv-x="894" d="M96 1145q0 136 92.5 213.5t245.5 77.5q151 0 244.5 -79.5t93.5 -203.5q0 -55 -19.5 -106t-48 -86.5t-69.5 -70t-74.5 -55.5t-73 -45t-55.5 -36q4 -4 4 -9q106 27 182 27h168v-194h-665v178q30 20 85 52.5t94 55.5t87 58t77.5 65.5t50 71t20.5 82.5q0 39 -26 69.5 t-89 30.5q-50 0 -88.5 -29.5t-38.5 -89.5v-12z" />
<glyph unicode="&#xb3;" horiz-adv-x="888" d="M82 834q27 7 83 19t85 19h29q4 -73 47 -109t104 -36q69 0 100 33.5t31 85.5q0 47 -34 73.5t-103 26.5h-119v125h101q71 0 109 29.5t38 73.5q0 40 -31.5 61.5t-89.5 21.5t-94.5 -29t-42.5 -87h-19l-186 24q2 123 94.5 196t257.5 73q164 0 253 -64t89 -172 q0 -125 -120 -190q69 -24 105 -74.5t36 -116.5q0 -112 -96 -188t-267 -76q-165 0 -258 64.5t-102 216.5z" />
<glyph unicode="&#xb4;" horiz-adv-x="667" d="M158 1180v18l225 283h283v-37l-246 -264h-262z" />
<glyph unicode="&#xb5;" horiz-adv-x="1245" d="M109 -395v1480h307v-698q0 -94 39 -141t125 -47q107 0 170 79.5t63 200.5v606h307v-1085h-278v158h-8q-47 -81 -127.5 -128.5t-167.5 -47.5q-68 0 -123 28v-405h-307z" />
<glyph unicode="&#xb6;" horiz-adv-x="1630" d="M59 922q0 225 142.5 358t380.5 133h956v-258h-229v-473h229v-264h-229v-813h-308v1550h-94v-1550h-307v813h6q-86 0 -165 18.5t-149 58.5t-121.5 98t-81.5 142.5t-30 186.5z" />
<glyph unicode="&#xb7;" horiz-adv-x="626" d="M137 451v286h352v-286h-352z" />
<glyph unicode="&#xb8;" horiz-adv-x="747" d="M70 -309l94 86h8q23 -34 60 -54t77 -20q31 0 54.5 16t23.5 41q0 52 -90 52h-68l-43 45l43 143h162l-24 -88q200 0 200 -154q0 -84 -75 -131t-189 -47q-79 0 -133 28t-100 83z" />
<glyph unicode="&#xb9;" horiz-adv-x="589" d="M57 1118v197l246 98h158v-835h-232v608l-157 -68h-15z" />
<glyph unicode="&#xba;" horiz-adv-x="874" d="M68 1059q0 183 97.5 282t272.5 99t272 -99t97 -282q0 -182 -97.5 -280.5t-271.5 -98.5q-175 0 -272.5 98.5t-97.5 280.5zM274 1059q0 -234 164 -234q82 0 122 61.5t40 172.5t-40 173t-122 62q-84 0 -124 -62t-40 -173z" />
<glyph unicode="&#xbb;" horiz-adv-x="1591" d="M84 999h422l434 -426l-434 -426h-420l436 426zM715 999h422l434 -426l-434 -426h-420l436 426z" />
<glyph unicode="&#xbc;" horiz-adv-x="1792" d="M63 1118v197l246 98h158v-835h-231v608l-158 -68h-15zM295 -2l762 1432h237l-759 -1432h-240zM897 184v146l440 577h252v-547h137v-176h-137v-184h-231v184h-461zM1126 360h232v316z" />
<glyph unicode="&#xbd;" horiz-adv-x="1771" d="M63 1118v197l246 98h158v-835h-231v608l-158 -68h-15zM293 0l764 1430h237l-759 -1430h-242zM1006 567q0 136 92 213.5t245 77.5q151 0 244.5 -79.5t93.5 -203.5q0 -55 -19.5 -106t-48 -86.5t-69.5 -70t-74.5 -55.5t-73 -45t-55.5 -36q5 -5 5 -8q106 27 182 27h168v-195 h-666v178q30 20 85 52.5t94 55.5t87 58t77.5 65.5t50 71t20.5 82.5q0 40 -26 70.5t-89 30.5q-50 0 -88.5 -29.5t-38.5 -89.5v-13z" />
<glyph unicode="&#xbe;" horiz-adv-x="1994" d="M74 834q27 7 83 19t85 19h28q4 -73 47.5 -109t104.5 -36q69 0 100 33.5t31 85.5q0 47 -34 73.5t-103 26.5h-119v125h100q71 0 109.5 29.5t38.5 73.5q0 40 -31.5 61.5t-89.5 21.5t-94.5 -29t-42.5 -87h-19l-186 24q2 123 94.5 196t257.5 73q164 0 253 -64t89 -172 q0 -124 -121 -190q69 -24 105.5 -74.5t36.5 -116.5q0 -112 -96 -188t-267 -76q-165 0 -258 64.5t-102 216.5zM500 -2l762 1432h237l-760 -1432h-239zM1102 184v146l440 577h252v-547h137v-176h-137v-184h-231v184h-461zM1331 360h232v316z" />
<glyph unicode="&#xbf;" horiz-adv-x="1056" d="M61 129q0 155 96.5 273t272.5 167v179h336v-302q-176 -15 -286.5 -102.5t-110.5 -206.5q0 -75 38 -125.5t117 -50.5q33 0 60 8.5t53.5 29.5t44 64t23.5 105l290 -18q0 -5 1 -16t1 -17q0 -193 -130 -294.5t-349 -101.5q-110 0 -199.5 36t-144.5 94.5t-84 130t-29 147.5z M432 870v287h336v-287h-336z" />
<glyph unicode="&#xc0;" horiz-adv-x="1394" d="M-12 0l516 1421h387l516 -1421h-338l-113 330h-520l-114 -330h-334zM307 1772v36h281l227 -282v-19h-262zM518 582h365l-176 514h-13z" />
<glyph unicode="&#xc1;" horiz-adv-x="1394" d="M-12 0l516 1421h387l516 -1421h-338l-113 330h-520l-114 -330h-334zM518 582h365l-176 514h-13zM565 1507v19l226 282h282v-36l-246 -265h-262z" />
<glyph unicode="&#xc2;" horiz-adv-x="1394" d="M-12 0l516 1421h387l516 -1421h-338l-113 330h-520l-114 -330h-334zM295 1507v37l246 264h321q36 -39 77 -83t91.5 -98t77.5 -83v-37h-283l-125 152l-122 -152h-283zM518 582h365l-176 514h-13z" />
<glyph unicode="&#xc3;" horiz-adv-x="1394" d="M-12 0l516 1421h387l516 -1421h-338l-113 330h-520l-114 -330h-334zM305 1591q0 99 57.5 154t161.5 55q57 0 110 -14t86.5 -31t71 -31t66.5 -14q51 0 51 70v8h205q16 -46 16 -78q0 -99 -57.5 -154t-161.5 -55q-57 0 -110 14t-86 31t-70.5 31t-66.5 14q-52 0 -52 -69v-9 h-204q-17 49 -17 78zM518 582h365l-176 514h-13z" />
<glyph unicode="&#xc4;" horiz-adv-x="1394" d="M-12 0l516 1421h387l516 -1421h-338l-113 330h-520l-114 -330h-334zM287 1507v271h297v-271h-297zM518 582h365l-176 514h-13zM817 1507v271h297v-271h-297z" />
<glyph unicode="&#xc5;" horiz-adv-x="1386" d="M-16 0l516 1421h387l516 -1421h-338l-113 330h-520l-115 -330h-333zM469 1530q0 90 60.5 151.5t158.5 61.5t158.5 -61.5t60.5 -151.5t-60.5 -151.5t-158.5 -61.5t-158.5 61.5t-60.5 151.5zM514 582h365l-177 514h-12zM604 1530q0 -43 23 -68.5t61 -25.5q37 0 59.5 25.5 t22.5 68.5q0 42 -22.5 67t-59.5 25q-38 0 -61 -24.5t-23 -67.5z" />
<glyph unicode="&#xc6;" horiz-adv-x="2136" d="M-47 0l801 1413h1304v-258h-706v-297h596v-258h-596v-342h706v-258h-1024v340h-540l-183 -340h-358zM633 580h401v587h-82z" />
<glyph unicode="&#xc7;" horiz-adv-x="1447" d="M76 709q0 350 173 539.5t499 189.5q589 0 632 -488l-303 -47q-11 117 -94.5 197t-230.5 80q-173 0 -263 -123.5t-90 -347.5t93 -350t266 -126q150 0 234 79.5t98 209.5l301 -41q-8 -99 -41 -180t-85.5 -138.5t-123.5 -98t-153.5 -61.5t-176.5 -26l-18 -65q200 0 200 -154 q0 -84 -75 -131t-189 -47q-79 0 -133 28t-100 83l94 86h8q23 -34 60 -54t77 -20q31 0 54.5 16t23.5 41q0 52 -90 52h-68l-43 45l37 125q-279 29 -426 215.5t-147 511.5z" />
<glyph unicode="&#xc8;" horiz-adv-x="1249" d="M147 0v1413h1024v-258h-706v-297h596v-258h-596v-342h706v-258h-1024zM373 1772v36h280l228 -282v-19h-263z" />
<glyph unicode="&#xc9;" horiz-adv-x="1249" d="M147 0v1413h1024v-258h-706v-297h596v-258h-596v-342h706v-258h-1024zM539 1507v19l225 282h283v-36l-246 -265h-262z" />
<glyph unicode="&#xca;" horiz-adv-x="1249" d="M147 0v1413h1024v-258h-706v-297h596v-258h-596v-342h706v-258h-1024zM258 1507v37l246 264h321q36 -39 77 -83t91.5 -98t77.5 -83v-37h-283l-124 152l-123 -152h-283z" />
<glyph unicode="&#xcb;" horiz-adv-x="1249" d="M147 0v1413h1024v-258h-706v-297h596v-258h-596v-342h706v-258h-1024zM256 1507v271h297v-271h-297zM786 1507v271h297v-271h-297z" />
<glyph unicode="&#xcc;" horiz-adv-x="612" d="M-66 1772v36h281l227 -282v-19h-262zM147 0v1413h318v-1413h-318z" />
<glyph unicode="&#xcd;" horiz-adv-x="612" d="M147 0v1413h318v-1413h-318zM178 1507v19l225 282h283v-36l-246 -265h-262z" />
<glyph unicode="&#xce;" horiz-adv-x="612" d="M-96 1507v37l246 264h321q36 -39 77 -83t91.5 -98t77.5 -83v-37h-283l-125 152l-123 -152h-282zM147 0v1413h318v-1413h-318z" />
<glyph unicode="&#xcf;" horiz-adv-x="612" d="M-106 1507v271h296v-271h-296zM147 0v1413h318v-1413h-318zM424 1507v271h297v-271h-297z" />
<glyph unicode="&#xd0;" horiz-adv-x="1501" d="M-16 588v243h209v582h585q134 0 243.5 -38.5t184.5 -104.5t126 -156.5t74.5 -192t23.5 -214.5t-23.5 -215t-74.5 -192.5t-126 -156.5t-184.5 -104.5t-243.5 -38.5h-585v588h-209zM510 258h268q161 0 244.5 121.5t83.5 327.5q0 207 -83 327.5t-245 120.5h-268v-324h250 v-243h-250v-330z" />
<glyph unicode="&#xd1;" horiz-adv-x="1593" d="M147 0v1413h336l650 -926v926h313v-1413h-338l-647 928v-928h-314zM408 1591q0 99 57.5 154t161.5 55q57 0 110 -14t86.5 -31t71 -31t66.5 -14q51 0 51 70v8h205q16 -46 16 -78q0 -99 -57.5 -154t-161.5 -55q-57 0 -110 14t-86.5 31t-71 31t-66.5 14q-51 0 -51 -69v-9 h-205q-16 46 -16 78z" />
<glyph unicode="&#xd2;" horiz-adv-x="1566" d="M70 707q0 155 45 286.5t131.5 231.5t224.5 156.5t313 56.5q174 0 311.5 -56.5t224.5 -156.5t132 -231.5t45 -286.5t-45 -287t-132 -232t-224.5 -156.5t-311.5 -56.5q-141 0 -258 37t-200.5 103t-141.5 158t-86 201.5t-28 232.5zM393 707q0 -216 98.5 -345t292.5 -129 q129 0 218.5 62t130.5 166.5t41 245.5t-41 245.5t-130.5 166t-218.5 61.5q-194 0 -292.5 -128.5t-98.5 -344.5zM412 1772v36h280l228 -282v-19h-263z" />
<glyph unicode="&#xd3;" horiz-adv-x="1566" d="M70 707q0 155 45 286.5t131.5 231.5t224.5 156.5t313 56.5q174 0 311.5 -56.5t224.5 -156.5t132 -231.5t45 -286.5t-45 -287t-132 -232t-224.5 -156.5t-311.5 -56.5q-141 0 -258 37t-200.5 103t-141.5 158t-86 201.5t-28 232.5zM393 707q0 -216 98.5 -345t292.5 -129 q129 0 218.5 62t130.5 166.5t41 245.5t-41 245.5t-130.5 166t-218.5 61.5q-194 0 -292.5 -128.5t-98.5 -344.5zM645 1507v19l225 282h283v-36l-246 -265h-262z" />
<glyph unicode="&#xd4;" horiz-adv-x="1566" d="M70 707q0 155 45 286.5t131.5 231.5t224.5 156.5t313 56.5q174 0 311.5 -56.5t224.5 -156.5t132 -231.5t45 -286.5t-45 -287t-132 -232t-224.5 -156.5t-311.5 -56.5q-141 0 -258 37t-200.5 103t-141.5 158t-86 201.5t-28 232.5zM379 1507v37l246 264h321q36 -39 77 -83 t91.5 -98t77.5 -83v-37h-283l-125 152l-122 -152h-283zM393 707q0 -216 98.5 -345t292.5 -129q129 0 218.5 62t130.5 166.5t41 245.5t-41 245.5t-130.5 166t-218.5 61.5q-194 0 -292.5 -128.5t-98.5 -344.5z" />
<glyph unicode="&#xd5;" horiz-adv-x="1566" d="M70 707q0 155 45 286.5t131.5 231.5t224.5 156.5t313 56.5q174 0 311.5 -56.5t224.5 -156.5t132 -231.5t45 -286.5t-45 -287t-132 -232t-224.5 -156.5t-311.5 -56.5q-141 0 -258 37t-200.5 103t-141.5 158t-86 201.5t-28 232.5zM371 1591q0 99 57.5 154t161.5 55 q57 0 110 -14t86.5 -31t71 -31t66.5 -14q51 0 51 70v8h205q16 -46 16 -78q0 -99 -57.5 -154t-161.5 -55q-57 0 -110 14t-86.5 31t-71 31t-66.5 14q-51 0 -51 -69v-9h-205q-16 46 -16 78zM393 707q0 -216 98.5 -345t292.5 -129q129 0 218.5 62t130.5 166.5t41 245.5 t-41 245.5t-130.5 166t-218.5 61.5q-194 0 -292.5 -128.5t-98.5 -344.5z" />
<glyph unicode="&#xd6;" horiz-adv-x="1566" d="M70 707q0 155 45 286.5t131.5 231.5t224.5 156.5t313 56.5q174 0 311.5 -56.5t224.5 -156.5t132 -231.5t45 -286.5t-45 -287t-132 -232t-224.5 -156.5t-311.5 -56.5q-141 0 -258 37t-200.5 103t-141.5 158t-86 201.5t-28 232.5zM365 1507v271h297v-271h-297zM393 707 q0 -216 98.5 -345t292.5 -129q129 0 218.5 62t130.5 166.5t41 245.5t-41 245.5t-130.5 166t-218.5 61.5q-194 0 -292.5 -128.5t-98.5 -344.5zM895 1507v271h297v-271h-297z" />
<glyph unicode="&#xd7;" horiz-adv-x="1148" d="M80 842l203 202l295 -294l288 290l195 -194l-289 -291l293 -293l-203 -203l-293 293l-290 -291l-195 195l291 291z" />
<glyph unicode="&#xd8;" horiz-adv-x="882" d="M-127 -137l768 1702h346l-774 -1702h-340z" />
<glyph unicode="&#xd9;" horiz-adv-x="1488" d="M133 522v891h318v-887q0 -141 81.5 -217t212.5 -76q129 0 211 76t82 217v887h318v-891q0 -253 -167.5 -400t-443.5 -147q-279 0 -445.5 147t-166.5 400zM391 1772v36h281l227 -282v-19h-262z" />
<glyph unicode="&#xda;" horiz-adv-x="1488" d="M133 522v891h318v-887q0 -141 81.5 -217t212.5 -76q129 0 211 76t82 217v887h318v-891q0 -253 -167.5 -400t-443.5 -147q-279 0 -445.5 147t-166.5 400zM604 1507v19l225 282h283v-36l-246 -265h-262z" />
<glyph unicode="&#xdb;" horiz-adv-x="1488" d="M133 522v891h318v-887q0 -141 81.5 -217t212.5 -76q129 0 211 76t82 217v887h318v-891q0 -253 -167.5 -400t-443.5 -147q-279 0 -445.5 147t-166.5 400zM338 1507v37l246 264h321q36 -39 77 -83t91.5 -98t77.5 -83v-37h-283l-125 152l-122 -152h-283z" />
<glyph unicode="&#xdc;" horiz-adv-x="1488" d="M133 522v891h318v-887q0 -141 81.5 -217t212.5 -76q129 0 211 76t82 217v887h318v-891q0 -253 -167.5 -400t-443.5 -147q-279 0 -445.5 147t-166.5 400zM328 1507v271h297v-271h-297zM858 1507v271h297v-271h-297z" />
<glyph unicode="&#xdd;" horiz-adv-x="1284" d="M-18 1407v6h362l293 -610h10l293 610h363v-6l-502 -911v-496h-318v496zM512 1507v19l225 282h283v-36l-246 -265h-262z" />
<glyph unicode="&#xde;" horiz-adv-x="1273" d="M147 0v1413h316v-199h252q240 0 382 -133t142 -358q0 -122 -44 -220t-118 -159t-167 -93t-195 -32h-252v-219h-316zM463 477h239q93 0 152.5 65.5t60.5 180.5q0 114 -57.5 173.5t-155.5 59.5h-239v-479z" />
<glyph unicode="&#xdf;" horiz-adv-x="1280" d="M121 0v897q0 119 28.5 213t76.5 155t115.5 100.5t141.5 56t158 16.5q216 0 338.5 -107t122.5 -260q0 -106 -67.5 -192.5t-186.5 -114.5q173 -19 273 -112.5t100 -250.5q0 -209 -122.5 -313t-326.5 -104q-75 0 -229 28v219q106 -18 149 -18q91 0 151 50.5t60 154.5 q0 66 -27 108.5t-101.5 70.5t-203.5 36v217q89 -3 162.5 47t73.5 129q0 72 -54.5 117t-125.5 45q-82 0 -140.5 -55t-58.5 -170v-963h-307z" />
<glyph unicode="&#xe0;" horiz-adv-x="1138" d="M59 324q0 78 27.5 139.5t72.5 100.5t108 65t129 36.5t139 10.5h184v47q0 72 -47.5 115t-122.5 43q-43 0 -83.5 -13.5t-73 -49t-32.5 -87.5h-12l-254 64q0 72 30.5 128.5t77.5 90.5t111 56.5t125 31t125 8.5q101 0 182.5 -24t145.5 -74t99.5 -134.5t35.5 -197.5v-680h-266 v160h-8q-44 -78 -126 -126t-204 -48q-159 0 -261 86.5t-102 251.5zM233 1444v37h281l227 -283v-18h-262zM373 340q0 -57 36.5 -87t92.5 -30q80 0 148.5 54t68.5 139v51h-162q-184 0 -184 -127z" />
<glyph unicode="&#xe1;" horiz-adv-x="1138" d="M59 324q0 78 27.5 139.5t72.5 100.5t108 65t129 36.5t139 10.5h184v47q0 72 -47.5 115t-122.5 43q-43 0 -83.5 -13.5t-73 -49t-32.5 -87.5h-12l-254 64q0 72 30.5 128.5t77.5 90.5t111 56.5t125 31t125 8.5q101 0 182.5 -24t145.5 -74t99.5 -134.5t35.5 -197.5v-680h-266 v160h-8q-44 -78 -126 -126t-204 -48q-159 0 -261 86.5t-102 251.5zM373 340q0 -57 36.5 -87t92.5 -30q80 0 148.5 54t68.5 139v51h-162q-184 0 -184 -127zM416 1180v18l225 283h283v-37l-246 -264h-262z" />
<glyph unicode="&#xe2;" horiz-adv-x="1138" d="M59 324q0 78 27.5 139.5t72.5 100.5t108 65t129 36.5t139 10.5h184v47q0 72 -47.5 115t-122.5 43q-43 0 -83.5 -13.5t-73 -49t-32.5 -87.5h-12l-254 64q0 72 30.5 128.5t77.5 90.5t111 56.5t125 31t125 8.5q101 0 182.5 -24t145.5 -74t99.5 -134.5t35.5 -197.5v-680h-266 v160h-8q-44 -78 -126 -126t-204 -48q-159 0 -261 86.5t-102 251.5zM152 1180v37l245 264h322q36 -39 77 -83t91.5 -98t77.5 -83v-37h-283l-125 151l-123 -151h-282zM373 340q0 -57 36.5 -87t92.5 -30q80 0 148.5 54t68.5 139v51h-162q-184 0 -184 -127z" />
<glyph unicode="&#xe3;" horiz-adv-x="1138" d="M59 324q0 78 27.5 139.5t72.5 100.5t108 65t129 36.5t139 10.5h184v47q0 72 -47.5 115t-122.5 43q-43 0 -83.5 -13.5t-73 -49t-32.5 -87.5h-12l-254 64q0 72 30.5 128.5t77.5 90.5t111 56.5t125 31t125 8.5q101 0 182.5 -24t145.5 -74t99.5 -134.5t35.5 -197.5v-680h-266 v160h-8q-44 -78 -126 -126t-204 -48q-159 0 -261 86.5t-102 251.5zM174 1264q0 99 57.5 154t161.5 55q57 0 110 -14t86.5 -31.5t71 -31.5t66.5 -14q51 0 51 70v8h205q16 -46 16 -78q0 -98 -57.5 -153t-161.5 -55q-57 0 -110 14t-86.5 31t-71 31t-66.5 14q-51 0 -51 -70v-8 h-205q-16 46 -16 78zM373 340q0 -57 36.5 -87t92.5 -30q80 0 148.5 54t68.5 139v51h-162q-184 0 -184 -127z" />
<glyph unicode="&#xe4;" horiz-adv-x="1138" d="M59 324q0 78 27.5 139.5t72.5 100.5t108 65t129 36.5t139 10.5h184v47q0 72 -47.5 115t-122.5 43q-43 0 -83.5 -13.5t-73 -49t-32.5 -87.5h-12l-254 64q0 72 30.5 128.5t77.5 90.5t111 56.5t125 31t125 8.5q101 0 182.5 -24t145.5 -74t99.5 -134.5t35.5 -197.5v-680h-266 v160h-8q-44 -78 -126 -126t-204 -48q-159 0 -261 86.5t-102 251.5zM156 1180v270h297v-270h-297zM373 340q0 -57 36.5 -87t92.5 -30q80 0 148.5 54t68.5 139v51h-162q-184 0 -184 -127zM686 1180v270h297v-270h-297z" />
<glyph unicode="&#xe5;" horiz-adv-x="1138" d="M59 324q0 78 27.5 139.5t72.5 100.5t108 65t129 36.5t139 10.5h184v47q0 72 -47.5 115t-122.5 43q-43 0 -83.5 -13.5t-73 -49t-32.5 -87.5h-12l-254 64q0 72 30.5 128.5t77.5 90.5t111 56.5t125 31t125 8.5q101 0 182.5 -24t145.5 -74t99.5 -134.5t35.5 -197.5v-680h-266 v160h-8q-44 -78 -126 -126t-204 -48q-159 0 -261 86.5t-102 251.5zM350 1389q0 90 60.5 151.5t158.5 61.5t158.5 -61.5t60.5 -151.5t-60.5 -151.5t-158.5 -61.5t-158.5 61.5t-60.5 151.5zM373 340q0 -57 36.5 -87t92.5 -30q80 0 148.5 54t68.5 139v51h-162q-184 0 -184 -127 zM485 1389q0 -43 23 -69t61 -26q37 0 59.5 26t22.5 69q0 42 -22.5 67t-59.5 25q-38 0 -61 -24.5t-23 -67.5z" />
<glyph unicode="&#xe6;" horiz-adv-x="1837" d="M59 324q0 78 27.5 139.5t72.5 100.5t108 65t129 36.5t139 10.5h184v53q-3 69 -50 109.5t-120 40.5q-43 0 -83.5 -13t-73 -48t-32.5 -87h-12l-254 64q0 72 30.5 128.5t77.5 90.5t111 56.5t125 31t125 8.5q225 0 344 -113q138 113 344 113q257 0 385.5 -136.5t128.5 -363.5 v-143h-729q4 -132 65.5 -197t166.5 -65q205 0 223 172l285 -33q-20 -183 -156.5 -276t-366.5 -93q-279 0 -417 172q-156 -161 -414 -161q-159 0 -261 86.5t-102 251.5zM373 340q0 -57 36.5 -86t92.5 -29q81 0 149 53t68 138v51h-162q-184 0 -184 -127zM1042 684h412v8 q0 84 -50.5 138.5t-150.5 54.5q-97 0 -150 -54.5t-61 -146.5z" />
<glyph unicode="&#xe7;" horiz-adv-x="1165" d="M66 545q0 126 33 228t98.5 178t170.5 117.5t242 41.5q108 0 196 -25t153.5 -73.5t100.5 -126.5t32 -178l-297 -21q0 88 -47 141.5t-140 53.5q-229 0 -229 -336q0 -168 61.5 -254t167.5 -86q109 0 159 61t52 154l295 -19q-14 -394 -436 -424l-19 -65q201 0 201 -154 q0 -84 -75 -131t-189 -47q-79 0 -133.5 28t-100.5 83l95 86h8q23 -34 60 -54t77 -20q31 0 54.5 16t23.5 41q0 52 -90 52h-68l-43 45l37 125q-219 27 -334.5 178t-115.5 385z" />
<glyph unicode="&#xe8;" horiz-adv-x="1181" d="M63 543q0 256 143.5 411.5t389.5 155.5q257 0 385.5 -136.5t128.5 -363.5v-143h-729q4 -132 65 -197t166 -65q206 0 224 172l284 -33q-20 -183 -156 -276t-366 -93q-247 0 -391 145t-144 423zM285 1444v37h280l228 -283v-18h-263zM387 684h412v8q0 84 -50.5 138.5 t-150.5 54.5q-97 0 -150 -54.5t-61 -146.5z" />
<glyph unicode="&#xe9;" horiz-adv-x="1181" d="M63 543q0 256 143.5 411.5t389.5 155.5q257 0 385.5 -136.5t128.5 -363.5v-143h-729q4 -132 65 -197t166 -65q206 0 224 172l284 -33q-20 -183 -156 -276t-366 -93q-247 0 -391 145t-144 423zM387 684h412v8q0 84 -50.5 138.5t-150.5 54.5q-97 0 -150 -54.5t-61 -146.5z M467 1180v18l225 283h283v-37l-246 -264h-262z" />
<glyph unicode="&#xea;" horiz-adv-x="1181" d="M63 543q0 256 143.5 411.5t389.5 155.5q257 0 385.5 -136.5t128.5 -363.5v-143h-729q4 -132 65 -197t166 -65q206 0 224 172l284 -33q-20 -183 -156 -276t-366 -93q-247 0 -391 145t-144 423zM207 1180v37l246 264h321q36 -39 77 -83t91.5 -98t77.5 -83v-37h-283 l-125 151l-123 -151h-282zM387 684h412v8q0 84 -50.5 138.5t-150.5 54.5q-97 0 -150 -54.5t-61 -146.5z" />
<glyph unicode="&#xeb;" horiz-adv-x="1181" d="M63 543q0 256 143.5 411.5t389.5 155.5q257 0 385.5 -136.5t128.5 -363.5v-143h-729q4 -132 65 -197t166 -65q206 0 224 172l284 -33q-20 -183 -156 -276t-366 -93q-247 0 -391 145t-144 423zM180 1180v270h297v-270h-297zM387 684h412v8q0 84 -50.5 138.5t-150.5 54.5 q-97 0 -150 -54.5t-61 -146.5zM711 1180v270h297v-270h-297z" />
<glyph unicode="&#xec;" horiz-adv-x="552" d="M-102 1444v37h280l228 -283v-18h-263zM123 0v1085h307v-1085h-307z" />
<glyph unicode="&#xed;" horiz-adv-x="552" d="M123 0v1085h307v-1085h-307zM150 1180v18l225 283h282v-37l-245 -264h-262z" />
<glyph unicode="&#xee;" horiz-adv-x="552" d="M-133 1180v37l246 264h321q36 -39 77 -83t91.5 -98t77.5 -83v-37h-283l-125 151l-122 -151h-283zM123 0v1085h307v-1085h-307z" />
<glyph unicode="&#xef;" horiz-adv-x="552" d="M-137 1180v270h297v-270h-297zM123 0v1085h307v-1085h-307zM393 1180v270h297v-270h-297z" />
<glyph unicode="&#xf0;" horiz-adv-x="1257" d="M66 543q0 248 125 397t346 158q95 0 180 -43q-41 85 -96 153l-263 -45l-32 146l168 28q-96 83 -226 168h437q66 -56 118 -114l264 45l33 -144l-180 -37q112 -155 173 -333.5t61 -364.5q0 -277 -145 -429.5t-408 -152.5t-409 148.5t-146 419.5zM381 543q0 -169 59 -259.5 t181 -90.5q239 0 239 350q0 348 -239 348q-122 0 -181 -90.5t-59 -257.5z" />
<glyph unicode="&#xf1;" horiz-adv-x="1247" d="M123 0v1085h278v-155h9q51 90 145 135t197 45q169 0 276 -100.5t107 -288.5v-721h-308v696q0 181 -163 181q-107 0 -170.5 -78t-63.5 -197v-602h-307zM242 1264q0 99 57.5 154t161.5 55q57 0 110 -14t86.5 -31.5t71 -31.5t66.5 -14q51 0 51 70v8h205q16 -46 16 -78 q0 -98 -57.5 -153t-161.5 -55q-57 0 -110 14t-86.5 31t-71 31t-66.5 14q-51 0 -51 -70v-8h-205q-16 46 -16 78z" />
<glyph unicode="&#xf2;" d="M63 543q0 273 144.5 420t408.5 147t408.5 -147t144.5 -420q0 -271 -145 -419.5t-408 -148.5t-408 148.5t-145 419.5zM240 1444v37h280l228 -283v-18h-263zM377 543q0 -338 239 -338q240 0 240 338t-240 338q-239 0 -239 -338z" />
<glyph unicode="&#xf3;" d="M63 543q0 273 144.5 420t408.5 147t408.5 -147t144.5 -420q0 -271 -145 -419.5t-408 -148.5t-408 148.5t-145 419.5zM377 543q0 -338 239 -338q240 0 240 338t-240 338q-239 0 -239 -338zM485 1180v18l226 283h282v-37l-245 -264h-263z" />
<glyph unicode="&#xf4;" d="M63 543q0 273 144.5 420t408.5 147t408.5 -147t144.5 -420q0 -271 -145 -419.5t-408 -148.5t-408 148.5t-145 419.5zM209 1180v37l246 264h321q36 -39 77 -83t91.5 -98t77.5 -83v-37h-283l-125 151l-122 -151h-283zM377 543q0 -338 239 -338q240 0 240 338t-240 338 q-239 0 -239 -338z" />
<glyph unicode="&#xf5;" d="M63 543q0 273 144.5 420t408.5 147t408.5 -147t144.5 -420q0 -271 -145 -419.5t-408 -148.5t-408 148.5t-145 419.5zM205 1264q0 99 57.5 154t161.5 55q57 0 110 -14t86.5 -31.5t71 -31.5t66.5 -14q51 0 51 70v8h205q16 -46 16 -78q0 -98 -57.5 -153t-161.5 -55 q-57 0 -110 14t-86.5 31t-71 31t-66.5 14q-51 0 -51 -70v-8h-205q-16 46 -16 78zM377 543q0 -338 239 -338q240 0 240 338t-240 338q-239 0 -239 -338z" />
<glyph unicode="&#xf6;" d="M63 543q0 273 144.5 420t408.5 147t408.5 -147t144.5 -420q0 -271 -145 -419.5t-408 -148.5t-408 148.5t-145 419.5zM203 1180v270h297v-270h-297zM377 543q0 -338 239 -338q240 0 240 338t-240 338q-239 0 -239 -338zM733 1180v270h297v-270h-297z" />
<glyph unicode="&#xf7;" horiz-adv-x="1269" d="M82 416v274h1108v-274h-1108zM492 37v250h288v-250h-288zM492 819v250h288v-250h-288z" />
<glyph unicode="&#xf8;" d="M63 543q0 273 144.5 420t408.5 147q62 0 127 -10l64 119h332l-129 -244q159 -147 159 -432q0 -271 -145 -419.5t-408 -148.5q-68 0 -135 13l-71 -129h-338l145 254q-154 148 -154 430zM377 543q0 -82 16 -154l258 490q-5 0 -17 1t-18 1q-239 0 -239 -338zM578 207 q12 -2 38 -2q240 0 240 338q0 89 -18 153z" />
<glyph unicode="&#xf9;" horiz-adv-x="1214" d="M113 403v682h307v-692q0 -88 50 -138t136 -50t137.5 50t51.5 138v692h307v-682q0 -208 -129 -318t-367 -110q-236 0 -364.5 110t-128.5 318zM236 1444v37h280l227 -283v-18h-262z" />
<glyph unicode="&#xfa;" horiz-adv-x="1214" d="M113 403v682h307v-692q0 -88 50 -138t136 -50t137.5 50t51.5 138v692h307v-682q0 -208 -129 -318t-367 -110q-236 0 -364.5 110t-128.5 318zM477 1180v18l225 283h283v-37l-246 -264h-262z" />
<glyph unicode="&#xfb;" horiz-adv-x="1214" d="M113 403v682h307v-692q0 -88 50 -138t136 -50t137.5 50t51.5 138v692h307v-682q0 -208 -129 -318t-367 -110q-236 0 -364.5 110t-128.5 318zM201 1180v37l245 264h322q36 -39 77 -83t91.5 -98t77.5 -83v-37h-283l-125 151l-123 -151h-282z" />
<glyph unicode="&#xfc;" horiz-adv-x="1214" d="M113 403v682h307v-692q0 -88 50 -138t136 -50t137.5 50t51.5 138v692h307v-682q0 -208 -129 -318t-367 -110q-236 0 -364.5 110t-128.5 318zM193 1180v270h296v-270h-296zM723 1180v270h297v-270h-297z" />
<glyph unicode="&#xfd;" horiz-adv-x="1093" d="M-2 1085h319l232 -745l235 745h316l-434 -1142q-66 -172 -178 -259t-308 -87h-141v260h147q68 0 104.5 30.5t61.5 87.5l25 56zM465 1180v18l225 283h283v-37l-246 -264h-262z" />
<glyph unicode="&#xfe;" horiz-adv-x="1275" d="M121 1413h299v-461q110 158 334 158q97 0 177 -32t143 -98t98.5 -177.5t35.5 -259.5t-35.5 -260t-98.5 -178t-143 -98t-177 -32q-100 0 -188 38t-136 108v-516h-307zM424 543q0 -338 238 -338q117 0 175 79t58 259t-58 259t-175 79q-238 0 -238 -338z" />
<glyph unicode="&#xff;" horiz-adv-x="1093" d="M-2 1085h319l232 -745l235 745h316l-434 -1142q-66 -172 -178 -259t-308 -87h-141v260h147q68 0 104.5 30.5t61.5 87.5l25 56zM145 1180v270h297v-270h-297zM676 1180v270h297v-270h-297z" />
<glyph unicode="&#x152;" horiz-adv-x="2230" d="M70 707q0 155 45 286.5t131.5 231.5t224.5 156.5t313 56.5q182 0 344 -86v61h1024v-258h-706v-297h596v-258h-596v-342h706v-258h-1024v66q-162 -91 -344 -91q-141 0 -258 37t-200.5 103t-141.5 158t-86 201.5t-28 232.5zM393 707q0 -216 98.5 -345t292.5 -129 q193 0 344 121v709q-54 45 -153 81t-191 36q-194 0 -292.5 -128.5t-98.5 -344.5z" />
<glyph unicode="&#x153;" horiz-adv-x="1974" d="M63 543q0 273 144.5 420t408.5 147q258 0 400 -139q142 139 373 139q257 0 385.5 -136.5t128.5 -363.5v-143h-729q4 -132 65 -197t166 -65q205 0 223 172l285 -33q-20 -183 -156 -276t-366 -93q-241 0 -381 134q-143 -134 -394 -134q-263 0 -408 148.5t-145 419.5z M377 543q0 -338 239 -338q240 0 240 338t-240 338q-239 0 -239 -338zM1180 684h411v8q0 84 -50 138.5t-150 54.5q-97 0 -150 -54.5t-61 -146.5z" />
<glyph unicode="&#x178;" horiz-adv-x="1284" d="M-18 1407v6h362l293 -610h10l293 610h363v-6l-502 -911v-496h-318v496zM229 1507v271h297v-271h-297zM760 1507v271h297v-271h-297z" />
<glyph unicode="&#x2c6;" horiz-adv-x="1048" d="M100 1180v37l246 264h322q40 -44 245 -264v-37h-282l-125 151l-123 -151h-283z" />
<glyph unicode="&#x2dc;" horiz-adv-x="1110" d="M147 1264q0 98 58 153.5t162 55.5q57 0 110 -14t86 -31.5t70.5 -31.5t66.5 -14q52 0 52 70v8h204q17 -49 17 -78q0 -98 -57.5 -153t-161.5 -55q-57 0 -110 14t-86.5 31t-71 31t-66.5 14q-51 0 -51 -70v-8h-205q-17 49 -17 78z" />
<glyph unicode="&#x2000;" horiz-adv-x="904" />
<glyph unicode="&#x2001;" horiz-adv-x="1808" />
<glyph unicode="&#x2002;" horiz-adv-x="904" />
<glyph unicode="&#x2003;" horiz-adv-x="1808" />
<glyph unicode="&#x2004;" horiz-adv-x="602" />
<glyph unicode="&#x2005;" horiz-adv-x="452" />
<glyph unicode="&#x2006;" horiz-adv-x="301" />
<glyph unicode="&#x2007;" horiz-adv-x="301" />
<glyph unicode="&#x2008;" horiz-adv-x="226" />
<glyph unicode="&#x2009;" horiz-adv-x="361" />
<glyph unicode="&#x200a;" horiz-adv-x="100" />
<glyph unicode="&#x2010;" horiz-adv-x="1136" d="M100 461v241h936v-241h-936z" />
<glyph unicode="&#x2011;" horiz-adv-x="1136" d="M100 461v241h936v-241h-936z" />
<glyph unicode="&#x2012;" horiz-adv-x="1136" d="M100 461v241h936v-241h-936z" />
<glyph unicode="&#x2013;" horiz-adv-x="1335" d="M100 461v241h1135v-241h-1135z" />
<glyph unicode="&#x2014;" horiz-adv-x="1660" d="M100 461v241h1461v-241h-1461z" />
<glyph unicode="&#x2018;" horiz-adv-x="514" d="M70 895l172 518h211l-103 -518h-280z" />
<glyph unicode="&#x2019;" horiz-adv-x="501" d="M80 895l102 518h281l-172 -518h-211z" />
<glyph unicode="&#x201a;" horiz-adv-x="522" d="M35 -297l102 518h281l-172 -518h-211z" />
<glyph unicode="&#x201c;" horiz-adv-x="962" d="M70 895l172 518h211l-103 -518h-280zM518 895l172 518h211l-102 -518h-281z" />
<glyph unicode="&#x201d;" horiz-adv-x="950" d="M80 895l102 518h281l-172 -518h-211zM528 895l103 518h280l-172 -518h-211z" />
<glyph unicode="&#x201e;" horiz-adv-x="970" d="M35 -297l102 518h281l-172 -518h-211zM483 -297l103 518h280l-172 -518h-211z" />
<glyph unicode="&#x2022;" horiz-adv-x="661" d="M133 438v346h395v-346h-395z" />
<glyph unicode="&#x2026;" horiz-adv-x="1718" d="M117 0v317h348v-317h-348zM682 0v317h348v-317h-348zM1253 0v317h349v-317h-349z" />
<glyph unicode="&#x202f;" horiz-adv-x="361" />
<glyph unicode="&#x2039;" horiz-adv-x="1003" d="M18 571l480 428h415l-477 -428q59 -51 251 -221.5t231 -202.5h-420z" />
<glyph unicode="&#x203a;" horiz-adv-x="999" d="M86 999h418l477 -428l-477 -424h-416l475 424q-344 306 -477 428z" />
<glyph unicode="&#x205f;" horiz-adv-x="452" />
<glyph unicode="&#x20ac;" horiz-adv-x="1628" d="M70 479v162h170q-2 20 -2 68v47h-168v159h184q48 254 214.5 388.5t440.5 134.5q590 0 633 -488l-303 -47q-5 55 -27.5 104t-61.5 88t-100 62t-137 23q-127 0 -210 -68.5t-117 -196.5h487v-159h-514v-47q0 -48 2 -68h512v-162h-481q39 -119 122 -182.5t206 -63.5 q150 0 233.5 79.5t97.5 209.5l301 -41q-9 -105 -45 -189t-93.5 -142.5t-135.5 -98t-167.5 -57.5t-192.5 -19q-270 0 -437.5 129t-220.5 375h-190z" />
<glyph unicode="&#x2122;" horiz-adv-x="1368" d="M70 1270v143h467v-143h-150v-385h-174v385h-143zM606 885v528h232l96 -332l92 332h231v-528h-163v299h-17l-71 -299h-150l-72 299h-12v-299h-166z" />
<glyph unicode="&#x25fc;" horiz-adv-x="1085" d="M0 0v1085h1085v-1085h-1085z" />
</font>
</defs>
</svg>
